{
  "_id": "V:/tv/Vikings/Season 2/Vikings.S02E06.Unforgiven.EAC3.5.1.1080p.Bluray.x265-iVy.mkv",
  "DB": "5vqJ1Pb22",
  "footprintId": "Dn96pX69u",
  "file": "V:/tv/Vikings/Season 2/Vikings.S02E06.Unforgiven.EAC3.5.1.1080p.Bluray.x265-iVy.mkv",
  "fileNameWithoutExtension": "Vikings.S02E06.Unforgiven.EAC3.5.1.1080p.Bluray.x265-iVy",
  "container": "mkv",
  "scannerReads": {
    "ffProbeRead": "success",
    "exiftoolRead": "success",
    "mediaInfoRead": "success",
    "closedCaptionRead": "not enabled"
  },
  "createdAt": 1755936245550,
  "lastPluginDetails": "none",
  "bit_rate": 2562196,
  "statSync": {
    "dev": 3145496900,
    "mode": 33206,
    "nlink": 1,
    "uid": 0,
    "gid": 0,
    "rdev": 0,
    "blksize": 4096,
    "ino": 51144256,
    "size": 914484977,
    "blocks": 1786112,
    "atimeMs": 1755921221515.7014,
    "mtimeMs": 1704842497000,
    "ctimeMs": 1704842497000,
    "birthtimeMs": 1755828913402.7268,
    "atime": "2025-08-23T03:53:41.516Z",
    "mtime": "2024-01-09T23:21:37.000Z",
    "ctime": "2024-01-09T23:21:37.000Z",
    "birthtime": "2025-08-22T02:15:13.403Z"
  },
  "file_size": 872.1208353042603,
  "ffProbeData": {
    "streams": [
      {
        "index": 0,
        "codec_name": "hevc",
        "codec_long_name": "H.265 / HEVC (High Efficiency Video Coding)",
        "profile": "Main",
        "codec_type": "video",
        "codec_tag_string": "[0][0][0][0]",
        "codec_tag": "0x0000",
        "width": 1920,
        "height": 1080,
        "coded_width": 1920,
        "coded_height": 1080,
        "closed_captions": 0,
        "film_grain": 0,
        "has_b_frames": 2,
        "sample_aspect_ratio": "1:1",
        "display_aspect_ratio": "16:9",
        "pix_fmt": "yuv420p",
        "level": 120,
        "color_range": "tv",
        "color_space": "bt709",
        "color_transfer": "bt709",
        "color_primaries": "bt709",
        "chroma_location": "left",
        "refs": 1,
        "view_ids_available": "",
        "view_pos_available": "",
        "r_frame_rate": "24000/1001",
        "avg_frame_rate": "24000/1001",
        "time_base": "1/1000",
        "start_pts": 5,
        "start_time": "0.005000",
        "extradata_size": 2483,
        "disposition": {
          "default": 1,
          "dub": 0,
          "original": 0,
          "comment": 0,
          "lyrics": 0,
          "karaoke": 0,
          "forced": 0,
          "hearing_impaired": 0,
          "visual_impaired": 0,
          "clean_effects": 0,
          "attached_pic": 0,
          "timed_thumbnails": 0,
          "non_diegetic": 0,
          "captions": 0,
          "descriptions": 0,
          "metadata": 0,
          "dependent": 0,
          "still_image": 0,
          "multilayer": 0
        },
        "tags": {
          "DURATION": "00:47:35.316000000"
        }
      },
      {
        "index": 1,
        "codec_name": "eac3",
        "codec_long_name": "ATSC A/52B (AC-3, E-AC-3)",
        "codec_type": "audio",
        "codec_tag_string": "[0][0][0][0]",
        "codec_tag": "0x0000",
        "sample_fmt": "fltp",
        "sample_rate": "48000",
        "channels": 6,
        "channel_layout": "5.1(side)",
        "bits_per_sample": 0,
        "initial_padding": 0,
        "r_frame_rate": "0/0",
        "avg_frame_rate": "0/0",
        "time_base": "1/1000",
        "start_pts": 0,
        "start_time": "0.000000",
        "bit_rate": "640000",
        "disposition": {
          "default": 1,
          "dub": 0,
          "original": 0,
          "comment": 0,
          "lyrics": 0,
          "karaoke": 0,
          "forced": 0,
          "hearing_impaired": 0,
          "visual_impaired": 0,
          "clean_effects": 0,
          "attached_pic": 0,
          "timed_thumbnails": 0,
          "non_diegetic": 0,
          "captions": 0,
          "descriptions": 0,
          "metadata": 0,
          "dependent": 0,
          "still_image": 0,
          "multilayer": 0
        },
        "tags": {
          "language": "eng",
          "DURATION": "00:47:35.296000000"
        }
      },
      {
        "index": 2,
        "codec_name": "hdmv_pgs_subtitle",
        "codec_long_name": "HDMV Presentation Graphic Stream subtitles",
        "codec_type": "subtitle",
        "codec_tag_string": "[0][0][0][0]",
        "codec_tag": "0x0000",
        "r_frame_rate": "0/0",
        "avg_frame_rate": "0/0",
        "time_base": "1/1000",
        "start_pts": 0,
        "start_time": "0.000000",
        "duration_ts": 2855316,
        "duration": "2855.316000",
        "disposition": {
          "default": 0,
          "dub": 0,
          "original": 0,
          "comment": 0,
          "lyrics": 0,
          "karaoke": 0,
          "forced": 0,
          "hearing_impaired": 0,
          "visual_impaired": 0,
          "clean_effects": 0,
          "attached_pic": 0,
          "timed_thumbnails": 0,
          "non_diegetic": 0,
          "captions": 0,
          "descriptions": 0,
          "metadata": 0,
          "dependent": 0,
          "still_image": 0,
          "multilayer": 0
        },
        "tags": {
          "language": "dan",
          "DURATION": "00:47:31.771000000"
        }
      },
      {
        "index": 3,
        "codec_name": "hdmv_pgs_subtitle",
        "codec_long_name": "HDMV Presentation Graphic Stream subtitles",
        "codec_type": "subtitle",
        "codec_tag_string": "[0][0][0][0]",
        "codec_tag": "0x0000",
        "r_frame_rate": "0/0",
        "avg_frame_rate": "0/0",
        "time_base": "1/1000",
        "start_pts": 0,
        "start_time": "0.000000",
        "duration_ts": 2855316,
        "duration": "2855.316000",
        "disposition": {
          "default": 0,
          "dub": 0,
          "original": 0,
          "comment": 0,
          "lyrics": 0,
          "karaoke": 0,
          "forced": 0,
          "hearing_impaired": 0,
          "visual_impaired": 0,
          "clean_effects": 0,
          "attached_pic": 0,
          "timed_thumbnails": 0,
          "non_diegetic": 0,
          "captions": 0,
          "descriptions": 0,
          "metadata": 0,
          "dependent": 0,
          "still_image": 0,
          "multilayer": 0
        },
        "tags": {
          "language": "dut",
          "DURATION": "00:47:31.771000000"
        }
      },
      {
        "index": 4,
        "codec_name": "hdmv_pgs_subtitle",
        "codec_long_name": "HDMV Presentation Graphic Stream subtitles",
        "codec_type": "subtitle",
        "codec_tag_string": "[0][0][0][0]",
        "codec_tag": "0x0000",
        "width": 1920,
        "height": 1080,
        "r_frame_rate": "0/0",
        "avg_frame_rate": "0/0",
        "time_base": "1/1000",
        "start_pts": 1173,
        "start_time": "1.173000",
        "disposition": {
          "default": 0,
          "dub": 0,
          "original": 0,
          "comment": 0,
          "lyrics": 0,
          "karaoke": 0,
          "forced": 0,
          "hearing_impaired": 0,
          "visual_impaired": 0,
          "clean_effects": 0,
          "attached_pic": 0,
          "timed_thumbnails": 0,
          "non_diegetic": 0,
          "captions": 0,
          "descriptions": 0,
          "metadata": 0,
          "dependent": 0,
          "still_image": 0,
          "multilayer": 0
        },
        "tags": {
          "language": "eng",
          "title": "SDH",
          "DURATION": "00:46:35.256000000"
        }
      },
      {
        "index": 5,
        "codec_name": "hdmv_pgs_subtitle",
        "codec_long_name": "HDMV Presentation Graphic Stream subtitles",
        "codec_type": "subtitle",
        "codec_tag_string": "[0][0][0][0]",
        "codec_tag": "0x0000",
        "r_frame_rate": "0/0",
        "avg_frame_rate": "0/0",
        "time_base": "1/1000",
        "start_pts": 0,
        "start_time": "0.000000",
        "duration_ts": 2855316,
        "duration": "2855.316000",
        "disposition": {
          "default": 0,
          "dub": 0,
          "original": 0,
          "comment": 0,
          "lyrics": 0,
          "karaoke": 0,
          "forced": 0,
          "hearing_impaired": 0,
          "visual_impaired": 0,
          "clean_effects": 0,
          "attached_pic": 0,
          "timed_thumbnails": 0,
          "non_diegetic": 0,
          "captions": 0,
          "descriptions": 0,
          "metadata": 0,
          "dependent": 0,
          "still_image": 0,
          "multilayer": 0
        },
        "tags": {
          "language": "fin",
          "DURATION": "00:47:31.771000000"
        }
      },
      {
        "index": 6,
        "codec_name": "hdmv_pgs_subtitle",
        "codec_long_name": "HDMV Presentation Graphic Stream subtitles",
        "codec_type": "subtitle",
        "codec_tag_string": "[0][0][0][0]",
        "codec_tag": "0x0000",
        "r_frame_rate": "0/0",
        "avg_frame_rate": "0/0",
        "time_base": "1/1000",
        "start_pts": 0,
        "start_time": "0.000000",
        "duration_ts": 2855316,
        "duration": "2855.316000",
        "disposition": {
          "default": 0,
          "dub": 0,
          "original": 0,
          "comment": 0,
          "lyrics": 0,
          "karaoke": 0,
          "forced": 0,
          "hearing_impaired": 0,
          "visual_impaired": 0,
          "clean_effects": 0,
          "attached_pic": 0,
          "timed_thumbnails": 0,
          "non_diegetic": 0,
          "captions": 0,
          "descriptions": 0,
          "metadata": 0,
          "dependent": 0,
          "still_image": 0,
          "multilayer": 0
        },
        "tags": {
          "language": "fre",
          "DURATION": "00:47:31.771000000"
        }
      },
      {
        "index": 7,
        "codec_name": "hdmv_pgs_subtitle",
        "codec_long_name": "HDMV Presentation Graphic Stream subtitles",
        "codec_type": "subtitle",
        "codec_tag_string": "[0][0][0][0]",
        "codec_tag": "0x0000",
        "r_frame_rate": "0/0",
        "avg_frame_rate": "0/0",
        "time_base": "1/1000",
        "start_pts": 0,
        "start_time": "0.000000",
        "duration_ts": 2855316,
        "duration": "2855.316000",
        "disposition": {
          "default": 0,
          "dub": 0,
          "original": 0,
          "comment": 0,
          "lyrics": 0,
          "karaoke": 0,
          "forced": 0,
          "hearing_impaired": 0,
          "visual_impaired": 0,
          "clean_effects": 0,
          "attached_pic": 0,
          "timed_thumbnails": 0,
          "non_diegetic": 0,
          "captions": 0,
          "descriptions": 0,
          "metadata": 0,
          "dependent": 0,
          "still_image": 0,
          "multilayer": 0
        },
        "tags": {
          "language": "fre",
          "DURATION": "00:47:31.771000000"
        }
      },
      {
        "index": 8,
        "codec_name": "hdmv_pgs_subtitle",
        "codec_long_name": "HDMV Presentation Graphic Stream subtitles",
        "codec_type": "subtitle",
        "codec_tag_string": "[0][0][0][0]",
        "codec_tag": "0x0000",
        "r_frame_rate": "0/0",
        "avg_frame_rate": "0/0",
        "time_base": "1/1000",
        "start_pts": 0,
        "start_time": "0.000000",
        "duration_ts": 2855316,
        "duration": "2855.316000",
        "disposition": {
          "default": 0,
          "dub": 0,
          "original": 0,
          "comment": 0,
          "lyrics": 0,
          "karaoke": 0,
          "forced": 0,
          "hearing_impaired": 0,
          "visual_impaired": 0,
          "clean_effects": 0,
          "attached_pic": 0,
          "timed_thumbnails": 0,
          "non_diegetic": 0,
          "captions": 0,
          "descriptions": 0,
          "metadata": 0,
          "dependent": 0,
          "still_image": 0,
          "multilayer": 0
        },
        "tags": {
          "language": "ice",
          "DURATION": "00:47:31.771000000"
        }
      },
      {
        "index": 9,
        "codec_name": "hdmv_pgs_subtitle",
        "codec_long_name": "HDMV Presentation Graphic Stream subtitles",
        "codec_type": "subtitle",
        "codec_tag_string": "[0][0][0][0]",
        "codec_tag": "0x0000",
        "r_frame_rate": "0/0",
        "avg_frame_rate": "0/0",
        "time_base": "1/1000",
        "start_pts": 0,
        "start_time": "0.000000",
        "duration_ts": 2855316,
        "duration": "2855.316000",
        "disposition": {
          "default": 0,
          "dub": 0,
          "original": 0,
          "comment": 0,
          "lyrics": 0,
          "karaoke": 0,
          "forced": 0,
          "hearing_impaired": 0,
          "visual_impaired": 0,
          "clean_effects": 0,
          "attached_pic": 0,
          "timed_thumbnails": 0,
          "non_diegetic": 0,
          "captions": 0,
          "descriptions": 0,
          "metadata": 0,
          "dependent": 0,
          "still_image": 0,
          "multilayer": 0
        },
        "tags": {
          "language": "nor",
          "DURATION": "00:47:31.771000000"
        }
      },
      {
        "index": 10,
        "codec_name": "hdmv_pgs_subtitle",
        "codec_long_name": "HDMV Presentation Graphic Stream subtitles",
        "codec_type": "subtitle",
        "codec_tag_string": "[0][0][0][0]",
        "codec_tag": "0x0000",
        "r_frame_rate": "0/0",
        "avg_frame_rate": "0/0",
        "time_base": "1/1000",
        "start_pts": 0,
        "start_time": "0.000000",
        "duration_ts": 2855316,
        "duration": "2855.316000",
        "disposition": {
          "default": 0,
          "dub": 0,
          "original": 0,
          "comment": 0,
          "lyrics": 0,
          "karaoke": 0,
          "forced": 0,
          "hearing_impaired": 0,
          "visual_impaired": 0,
          "clean_effects": 0,
          "attached_pic": 0,
          "timed_thumbnails": 0,
          "non_diegetic": 0,
          "captions": 0,
          "descriptions": 0,
          "metadata": 0,
          "dependent": 0,
          "still_image": 0,
          "multilayer": 0
        },
        "tags": {
          "language": "por",
          "DURATION": "00:47:31.771000000"
        }
      },
      {
        "index": 11,
        "codec_name": "hdmv_pgs_subtitle",
        "codec_long_name": "HDMV Presentation Graphic Stream subtitles",
        "codec_type": "subtitle",
        "codec_tag_string": "[0][0][0][0]",
        "codec_tag": "0x0000",
        "r_frame_rate": "0/0",
        "avg_frame_rate": "0/0",
        "time_base": "1/1000",
        "start_pts": 0,
        "start_time": "0.000000",
        "duration_ts": 2855316,
        "duration": "2855.316000",
        "disposition": {
          "default": 0,
          "dub": 0,
          "original": 0,
          "comment": 0,
          "lyrics": 0,
          "karaoke": 0,
          "forced": 0,
          "hearing_impaired": 0,
          "visual_impaired": 0,
          "clean_effects": 0,
          "attached_pic": 0,
          "timed_thumbnails": 0,
          "non_diegetic": 0,
          "captions": 0,
          "descriptions": 0,
          "metadata": 0,
          "dependent": 0,
          "still_image": 0,
          "multilayer": 0
        },
        "tags": {
          "language": "spa",
          "DURATION": "00:47:31.771000000"
        }
      },
      {
        "index": 12,
        "codec_name": "hdmv_pgs_subtitle",
        "codec_long_name": "HDMV Presentation Graphic Stream subtitles",
        "codec_type": "subtitle",
        "codec_tag_string": "[0][0][0][0]",
        "codec_tag": "0x0000",
        "r_frame_rate": "0/0",
        "avg_frame_rate": "0/0",
        "time_base": "1/1000",
        "start_pts": 0,
        "start_time": "0.000000",
        "duration_ts": 2855316,
        "duration": "2855.316000",
        "disposition": {
          "default": 0,
          "dub": 0,
          "original": 0,
          "comment": 0,
          "lyrics": 0,
          "karaoke": 0,
          "forced": 0,
          "hearing_impaired": 0,
          "visual_impaired": 0,
          "clean_effects": 0,
          "attached_pic": 0,
          "timed_thumbnails": 0,
          "non_diegetic": 0,
          "captions": 0,
          "descriptions": 0,
          "metadata": 0,
          "dependent": 0,
          "still_image": 0,
          "multilayer": 0
        },
        "tags": {
          "language": "spa",
          "DURATION": "00:47:31.771000000"
        }
      },
      {
        "index": 13,
        "codec_name": "hdmv_pgs_subtitle",
        "codec_long_name": "HDMV Presentation Graphic Stream subtitles",
        "codec_type": "subtitle",
        "codec_tag_string": "[0][0][0][0]",
        "codec_tag": "0x0000",
        "r_frame_rate": "0/0",
        "avg_frame_rate": "0/0",
        "time_base": "1/1000",
        "start_pts": 0,
        "start_time": "0.000000",
        "duration_ts": 2855316,
        "duration": "2855.316000",
        "disposition": {
          "default": 0,
          "dub": 0,
          "original": 0,
          "comment": 0,
          "lyrics": 0,
          "karaoke": 0,
          "forced": 0,
          "hearing_impaired": 0,
          "visual_impaired": 0,
          "clean_effects": 0,
          "attached_pic": 0,
          "timed_thumbnails": 0,
          "non_diegetic": 0,
          "captions": 0,
          "descriptions": 0,
          "metadata": 0,
          "dependent": 0,
          "still_image": 0,
          "multilayer": 0
        },
        "tags": {
          "language": "swe",
          "DURATION": "00:47:31.771000000"
        }
      }
    ],
    "format": {
      "filename": "V:/tv/Vikings/Season 2/Vikings.S02E06.Unforgiven.EAC3.5.1.1080p.Bluray.x265-iVy.mkv",
      "nb_streams": 14,
      "nb_programs": 0,
      "nb_stream_groups": 0,
      "format_name": "matroska,webm",
      "format_long_name": "Matroska / WebM",
      "start_time": "0.000000",
      "duration": "2855.316000",
      "size": "914484977",
      "bit_rate": "2562196",
      "probe_score": 100,
      "tags": {
        "creation_time": "2024-01-08T15:12:15.000000Z",
        "ENCODER": "Lavf59.27.100"
      }
    }
  },
  "meta": {
    "SourceFile": "V:/tv/Vikings/Season 2/Vikings.S02E06.Unforgiven.EAC3.5.1.1080p.Bluray.x265-iVy.mkv",
    "errors": [],
    "tz": "UTC",
    "tzSource": "defaultVideosToUTC",
    "Duration": "00:47:31.771000000",
    "ExifToolVersion": 12.6,
    "FileName": "Vikings.S02E06.Unforgiven.EAC3.5.1.1080p.Bluray.x265-iVy.mkv",
    "Directory": "V:/tv/Vikings/Season 2",
    "FileSize": "914 MB",
    "FileModifyDate": {
      "_ctor": "ExifDateTime",
      "year": 2024,
      "month": 1,
      "day": 9,
      "hour": 15,
      "minute": 21,
      "second": 37,
      "tzoffsetMinutes": -480,
      "rawValue": "2024:01:09 15:21:37-08:00",
      "zoneName": "UTC-8"
    },
    "FileAccessDate": {
      "_ctor": "ExifDateTime",
      "year": 2025,
      "month": 8,
      "day": 22,
      "hour": 20,
      "minute": 53,
      "second": 41,
      "tzoffsetMinutes": -420,
      "rawValue": "2025:08:22 20:53:41-07:00",
      "zoneName": "UTC-7"
    },
    "FileCreateDate": {
      "_ctor": "ExifDateTime",
      "year": 2025,
      "month": 8,
      "day": 21,
      "hour": 19,
      "minute": 15,
      "second": 13,
      "tzoffsetMinutes": -420,
      "rawValue": "2025:08:21 19:15:13-07:00",
      "zoneName": "UTC-7"
    },
    "FilePermissions": "-rw-rw-rw-",
    "FileType": "MKV",
    "FileTypeExtension": "mkv",
    "MIMEType": "video/x-matroska",
    "EBMLVersion": 1,
    "EBMLReadVersion": 1,
    "DocType": "matroska",
    "DocTypeVersion": 4,
    "DocTypeReadVersion": 2,
    "TimecodeScale": "1 ms",
    "MuxingApp": "Lavf59.27.100",
    "WritingApp": "HandBrake 1.6.1 2023012300",
    "DateTimeOriginal": {
      "_ctor": "ExifDateTime",
      "year": 2024,
      "month": 1,
      "day": 8,
      "hour": 15,
      "minute": 12,
      "second": 15,
      "tzoffsetMinutes": 0,
      "rawValue": "2024:01:08 15:12:15Z",
      "zoneName": "UTC"
    },
    "VideoFrameRate": 23.976,
    "ImageWidth": 1920,
    "ImageHeight": 1080,
    "AudioChannels": 6,
    "AudioSampleRate": 48000,
    "TrackName": "SDH",
    "TrackNumber": 14,
    "TrackUID": "8ef17b35926f",
    "TrackLanguage": "swe",
    "TrackDefault": "No",
    "CodecID": "S_HDMV/PGS",
    "TrackType": "Subtitle",
    "Encoder": "Lavf59.27.100",
    "TagTrackUID": "8ef17b35926f",
    "ImageSize": "1920x1080",
    "Megapixels": 2.1
  },
  "mediaInfo": {
    "@ref": "",
    "track": [
      {
        "@type": "General",
        "UniqueID": "201768928345314778444466142880068629090",
        "VideoCount": "1",
        "AudioCount": "1",
        "TextCount": "12",
        "MenuCount": "1",
        "Format": "Matroska",
        "Format_Version": "4",
        "FileSize": "914484977",
        "Duration": "2855.316",
        "OverallBitRate": "2562196",
        "FrameRate": "23.976",
        "FrameCount": "68459",
        "StreamSize": "18200473",
        "IsStreamable": "Yes",
        "Encoded_Date": "2024-01-08 15:12:15 UTC",
        "Encoded_Application": "HandBrake 1.6.1 2023012300",
        "Encoded_Library": "Lavf59.27.100",
        "extra": {
          "ErrorDetectionType": "Per level 1"
        }
      },
      {
        "@type": "Video",
        "StreamOrder": "0",
        "ID": "1",
        "UniqueID": "6962785191331851091",
        "Format": "HEVC",
        "Format_Profile": "Main",
        "Format_Level": "4",
        "Format_Tier": "Main",
        "CodecID": "V_MPEGH/ISO/HEVC",
        "Duration": "2855.311000000",
        "BitRate": "1871208",
        "Width": "1920",
        "Height": "1080",
        "Sampled_Width": "1920",
        "Sampled_Height": "1080",
        "PixelAspectRatio": "1.000",
        "DisplayAspectRatio": "1.778",
        "FrameRate_Mode": "CFR",
        "FrameRate": "23.976",
        "FrameRate_Num": "24000",
        "FrameRate_Den": "1001",
        "FrameCount": "68459",
        "ColorSpace": "YUV",
        "ChromaSubsampling": "4:2:0",
        "ChromaSubsampling_Position": "Type 0",
        "BitDepth": "8",
        "Delay": "0.005",
        "Delay_Source": "Container",
        "StreamSize": "667860824",
        "Encoded_Library": "x265 - 3.5+1-f0c1022b6:[Windows][GCC 10.2.0][64 bit] 8bit+10bit+12bit",
        "Encoded_Library_Name": "x265",
        "Encoded_Library_Version": "3.5+1-f0c1022b6:[Windows][GCC 10.2.0][64 bit] 8bit+10bit+12bit",
        "Encoded_Library_Settings": "cpuid=1111039 / frame-threads=5 / numa-pools=32 / wpp / no-pmode / no-pme / no-psnr / no-ssim / log-level=2 / input-csp=1 / input-res=1920x1080 / interlace=0 / total-frames=0 / level-idc=0 / high-tier=1 / uhd-bd=0 / ref=4 / no-allow-non-conformance / no-repeat-headers / annexb / no-aud / no-eob / no-eos / no-hrd / info / hash=0 / no-temporal-layers / open-gop / min-keyint=24 / keyint=240 / gop-lookahead=0 / bframes=4 / b-adapt=2 / b-pyramid / bframe-bias=0 / rc-lookahead=25 / lookahead-slices=4 / scenecut=40 / no-hist-scenecut / radl=0 / no-splice / no-intra-refresh / ctu=64 / min-cu-size=8 / rect / no-amp / max-tu-size=32 / tu-inter-depth=1 / tu-intra-depth=1 / limit-tu=0 / rdoq-level=2 / dynamic-rd=0.00 / no-ssim-rd / signhide / no-tskip / nr-intra=0 / nr-inter=0 / no-constrained-intra / strong-intra-smoothing / max-merge=3 / limit-refs=3 / limit-modes / me=3 / subme=3 / merange=57 / temporal-mvp / no-frame-dup / no-hme / weightp / no-weightb / no-analyze-src-pics / deblock=0:0 / sao / no-sao-non-deblock / rd=4 / selective-sao=4 / no-early-skip / rskip / no-fast-intra / no-tskip-fast / no-cu-lossless / no-b-intra / no-splitrd-skip / rdpenalty=0 / psy-rd=2.00 / psy-rdoq=1.00 / no-rd-refine / no-lossless / cbqpoffs=0 / crqpoffs=0 / rc=crf / crf=23.0 / qcomp=0.60 / qpstep=4 / stats-write=0 / stats-read=0 / ipratio=1.40 / pbratio=1.30 / aq-mode=2 / aq-strength=1.00 / cutree / zone-count=0 / no-strict-cbr / qg-size=32 / no-rc-grain / qpmax=69 / qpmin=0 / no-const-vbv / sar=1 / overscan=0 / videoformat=5 / range=0 / colorprim=1 / transfer=1 / colormatrix=1 / chromaloc=1 / chromaloc-top=0 / chromaloc-bottom=0 / display-window=0 / cll=0,0 / min-luma=0 / max-luma=255 / log2-max-poc-lsb=8 / vui-timing-info / vui-hrd-info / slices=1 / no-opt-qp-pps / no-opt-ref-list-length-pps / no-multi-pass-opt-rps / scenecut-bias=0.05 / no-opt-cu-delta-qp / no-aq-motion / no-sbrc / no-hdr10 / no-hdr10-opt / no-dhdr10-opt / no-idr-recovery-sei / analysis-reuse-level=0 / analysis-save-reuse-level=0 / analysis-load-reuse-level=0 / scale-factor=0 / refine-intra=0 / refine-inter=0 / refine-mv=1 / refine-ctu-distortion=0 / no-limit-sao / ctu-info=0 / no-lowpass-dct / refine-analysis-type=0 / copy-pic=1 / max-ausize-factor=1.0 / no-dynamic-refine / no-single-sei / no-hevc-aq / no-svt / no-field / qp-adaptation-range=1.00 / scenecut-aware-qp=0conformance-window-offsets / right=0 / bottom=0 / decoder-max-rate=0 / no-vbv-live-multi-pass / no-mcstf",
        "Default": "Yes",
        "Forced": "No",
        "colour_description_present": "Yes",
        "colour_description_present_Source": "Container / Stream",
        "colour_range": "Limited",
        "colour_range_Source": "Container / Stream",
        "colour_primaries": "BT.709",
        "colour_primaries_Source": "Container / Stream",
        "transfer_characteristics": "BT.709",
        "transfer_characteristics_Source": "Container / Stream",
        "matrix_coefficients": "BT.709",
        "matrix_coefficients_Source": "Container / Stream"
      },
      {
        "@type": "Audio",
        "StreamOrder": "1",
        "ID": "2",
        "UniqueID": "17345496976548516814",
        "Format": "E-AC-3",
        "Format_Commercial_IfAny": "Dolby Digital Plus",
        "Format_Settings_Endianness": "Big",
        "CodecID": "A_EAC3",
        "Duration": "2855.296000000",
        "BitRate_Mode": "CBR",
        "BitRate": "640000",
        "Channels": "6",
        "ChannelPositions": "Front: L C R, Side: L R, LFE",
        "ChannelLayout": "L R C LFE Ls Rs",
        "SamplesPerFrame": "1536",
        "SamplingRate": "48000",
        "SamplingCount": "137054208",
        "FrameRate": "31.250",
        "Compression_Mode": "Lossy",
        "Delay": "0.000",
        "Delay_Source": "Container",
        "Video_Delay": "-0.005",
        "StreamSize": "228423680",
        "Language": "en",
        "ServiceKind": "CM",
        "Default": "Yes",
        "Forced": "No",
        "extra": {
          "bsid": "16",
          "dialnorm": "-31",
          "acmod": "7",
          "lfeon": "1",
          "dialnorm_Average": "-31",
          "dialnorm_Minimum": "-31"
        }
      },
      {
        "@type": "Text",
        "@typeorder": "1",
        "StreamOrder": "2",
        "ID": "3",
        "UniqueID": "4216849978254763320",
        "Format": "PGS",
        "CodecID": "S_HDMV/PGS",
        "Duration": "2851.771000000",
        "Language": "da",
        "Default": "No",
        "Forced": "No"
      },
      {
        "@type": "Text",
        "@typeorder": "2",
        "StreamOrder": "3",
        "ID": "4",
        "UniqueID": "5716914469182144563",
        "Format": "PGS",
        "CodecID": "S_HDMV/PGS",
        "Duration": "2851.771000000",
        "Language": "nl",
        "Default": "No",
        "Forced": "No"
      },
      {
        "@type": "Text",
        "@typeorder": "3",
        "StreamOrder": "4",
        "ID": "5",
        "UniqueID": "10599456665176589862",
        "Format": "PGS",
        "CodecID": "S_HDMV/PGS",
        "Duration": "2795.256000000",
        "Title": "SDH",
        "Language": "en",
        "Default": "No",
        "Forced": "No"
      },
      {
        "@type": "Text",
        "@typeorder": "4",
        "StreamOrder": "5",
        "ID": "6",
        "UniqueID": "13483635087758925495",
        "Format": "PGS",
        "CodecID": "S_HDMV/PGS",
        "Duration": "2851.771000000",
        "Language": "fi",
        "Default": "No",
        "Forced": "No"
      },
      {
        "@type": "Text",
        "@typeorder": "5",
        "StreamOrder": "6",
        "ID": "7",
        "UniqueID": "13944484713893166536",
        "Format": "PGS",
        "CodecID": "S_HDMV/PGS",
        "Duration": "2851.771000000",
        "Language": "fr",
        "Default": "No",
        "Forced": "No"
      },
      {
        "@type": "Text",
        "@typeorder": "6",
        "StreamOrder": "7",
        "ID": "8",
        "UniqueID": "6918794412095717423",
        "Format": "PGS",
        "CodecID": "S_HDMV/PGS",
        "Duration": "2851.771000000",
        "Language": "fr",
        "Default": "No",
        "Forced": "No"
      },
      {
        "@type": "Text",
        "@typeorder": "7",
        "StreamOrder": "8",
        "ID": "9",
        "UniqueID": "8699925399137236729",
        "Format": "PGS",
        "CodecID": "S_HDMV/PGS",
        "Duration": "2851.771000000",
        "Language": "is",
        "Default": "No",
        "Forced": "No"
      },
      {
        "@type": "Text",
        "@typeorder": "8",
        "StreamOrder": "9",
        "ID": "10",
        "UniqueID": "12315673763963639790",
        "Format": "PGS",
        "CodecID": "S_HDMV/PGS",
        "Duration": "2851.771000000",
        "Language": "no",
        "Default": "No",
        "Forced": "No"
      },
      {
        "@type": "Text",
        "@typeorder": "9",
        "StreamOrder": "10",
        "ID": "11",
        "UniqueID": "16543134265537461169",
        "Format": "PGS",
        "CodecID": "S_HDMV/PGS",
        "Duration": "2851.771000000",
        "Language": "pt",
        "Default": "No",
        "Forced": "No"
      },
      {
        "@type": "Text",
        "@typeorder": "10",
        "StreamOrder": "11",
        "ID": "12",
        "UniqueID": "18144429154445224208",
        "Format": "PGS",
        "CodecID": "S_HDMV/PGS",
        "Duration": "2851.771000000",
        "Language": "es",
        "Default": "No",
        "Forced": "No"
      },
      {
        "@type": "Text",
        "@typeorder": "11",
        "StreamOrder": "12",
        "ID": "13",
        "UniqueID": "1295703927185653184",
        "Format": "PGS",
        "CodecID": "S_HDMV/PGS",
        "Duration": "2851.771000000",
        "Language": "es",
        "Default": "No",
        "Forced": "No"
      },
      {
        "@type": "Text",
        "@typeorder": "12",
        "StreamOrder": "13",
        "ID": "14",
        "UniqueID": "10300149292793266342",
        "Format": "PGS",
        "CodecID": "S_HDMV/PGS",
        "Duration": "2851.771000000",
        "Language": "sv",
        "Default": "No",
        "Forced": "No"
      },
      {
        "@type": "Menu",
        "extra": {
          "_00_00_00_000": "Chapter 1",
          "_00_00_51_051": "Chapter 2",
          "_00_02_45_332": "Chapter 3",
          "_00_06_45_614": "Chapter 4",
          "_00_11_22_682": "Chapter 5",
          "_00_15_20_128": "Chapter 6",
          "_00_21_40_174": "Chapter 7",
          "_00_27_44_955": "Chapter 8",
          "_00_31_08_325": "Chapter 9",
          "_00_34_58_430": "Chapter 10",
          "_00_36_41_116": "Chapter 11",
          "_00_41_37_996": "Chapter 12"
        }
      }
    ]
  },
  "hasClosedCaptions": false,
  "bumped": false,
  "HealthCheck": "",
  "TranscodeDecisionMaker": "",
  "holdUntil": 0,
  "fileMedium": "video",
  "video_codec_name": "hevc",
  "audio_codec_name": "eac3",
  "video_resolution": "1080p",
  "lastHealthCheckDate": 0,
  "lastTranscodeDate": 0,
  "history": "",
  "oldSize": 0.8516805032268167,
  "newSize": 0,
  "newVsOldRatio": 0,
  "videoStreamIndex": 0,
  "duration": 2855
}